STARTFONT 2.1
FONT --Toronto-Regular-R-Normal--15-120-90-90-P-81-APPLE-ROMAN
SIZE 12 90 90
FONTBOUNDINGBOX 16 15 0 -3
METRICSSET 2
STARTPROPERTIES 19
FONT_ASCENT 12
FONT_DESCENT 3
PIXEL_SIZE 15
RESOLUTION_X 90
RESOLUTION_Y 90
POINT_SIZE 120
FACE_NAME "Toronto Regular 12"
FOUNDRY ""
FAMILY_NAME "Toronto"
WEIGHT_NAME "Regular"
RELATIVE_WEIGHT 50
SLANT "R"
SPACING "P"
SETWIDTH_NAME "Normal"
RELATIVE_SETWIDTH 50
ADD_STYLE_NAME ""
AVERAGE_WIDTH 81
CHARSET_REGISTRY "APPLE"
CHARSET_ENCODING "ROMAN"
ENDPROPERTIES
CHARS 176
STARTCHAR char00
ENCODING 0
SWIDTH 0 0
DWIDTH 0 0
BBX 0 0 0 -3
VVECTOR 0 -3
SWIDTH1 0 0
DWIDTH1 0 0
BITMAP 
ENDCHAR
STARTCHAR char09
ENCODING 9
SWIDTH 600 0
DWIDTH 9 0
BBX 0 0 9 -3
VVECTOR 9 -3
SWIDTH1 0 0
DWIDTH1 0 0
BITMAP 
ENDCHAR
STARTCHAR char0A
ENCODING 10
SWIDTH 0 0
DWIDTH 0 0
BBX 0 0 0 -3
VVECTOR 0 -3
SWIDTH1 0 0
DWIDTH1 0 0
BITMAP 
ENDCHAR
STARTCHAR char0B
ENCODING 11
SWIDTH 0 0
DWIDTH 0 0
BBX 0 0 0 -3
VVECTOR 0 -3
SWIDTH1 0 0
DWIDTH1 0 0
BITMAP 
ENDCHAR
STARTCHAR char0C
ENCODING 12
SWIDTH 0 0
DWIDTH 0 0
BBX 0 0 0 -3
VVECTOR 0 -3
SWIDTH1 0 0
DWIDTH1 0 0
BITMAP 
ENDCHAR
STARTCHAR char0D
ENCODING 13
SWIDTH 0 0
DWIDTH 0 0
BBX 0 0 0 -3
VVECTOR 0 -3
SWIDTH1 0 0
DWIDTH1 0 0
BITMAP 
ENDCHAR
STARTCHAR char1F
ENCODING 31
SWIDTH 0 0
DWIDTH 0 0
BBX 0 0 0 -3
VVECTOR 0 -3
SWIDTH1 0 0
DWIDTH1 0 0
BITMAP 
ENDCHAR
STARTCHAR space
ENCODING 32
SWIDTH 267 0
DWIDTH 4 0
BBX 0 0 4 -3
VVECTOR 4 -3
SWIDTH1 0 0
DWIDTH1 0 0
BITMAP 
ENDCHAR
STARTCHAR exclam
ENCODING 33
SWIDTH 267 0
DWIDTH 4 0
BBX 1 9 2 0
VVECTOR 3 12
SWIDTH1 0 -1000
DWIDTH1 0 -15
BITMAP 
80
80
80
80
80
80
80
00
80
ENDCHAR
STARTCHAR quotedbl
ENCODING 34
SWIDTH 333 0
DWIDTH 5 0
BBX 3 3 1 6
VVECTOR 3 12
SWIDTH1 0 -1000
DWIDTH1 0 -15
BITMAP 
A0
A0
A0
ENDCHAR
STARTCHAR numbersign
ENCODING 35
SWIDTH 600 0
DWIDTH 9 0
BBX 7 6 1 3
VVECTOR 5 12
SWIDTH1 0 -1000
DWIDTH1 0 -15
BITMAP 
14
7E
28
28
FC
50
ENDCHAR
STARTCHAR dollar
ENCODING 36
SWIDTH 467 0
DWIDTH 7 0
BBX 5 11 1 -1
VVECTOR 4 12
SWIDTH1 0 -1000
DWIDTH1 0 -15
BITMAP 
20
70
A8
A0
60
30
28
28
A8
70
20
ENDCHAR
STARTCHAR percent
ENCODING 37
SWIDTH 600 0
DWIDTH 9 0
BBX 7 9 1 0
VVECTOR 5 12
SWIDTH1 0 -1000
DWIDTH1 0 -15
BITMAP 
7E
92
94
68
10
2C
52
92
8C
ENDCHAR
STARTCHAR ampersand
ENCODING 38
SWIDTH 733 0
DWIDTH 11 0
BBX 9 9 1 0
VVECTOR 6 12
SWIDTH1 0 -1000
DWIDTH1 0 -15
BITMAP 
3000
4800
5000
2000
5200
8A00
8400
8A00
7180
ENDCHAR
STARTCHAR quotesingle
ENCODING 39
SWIDTH 200 0
DWIDTH 3 0
BBX 1 3 1 6
VVECTOR 2 12
SWIDTH1 0 -1000
DWIDTH1 0 -15
BITMAP 
80
80
80
ENDCHAR
STARTCHAR parenleft
ENCODING 40
SWIDTH 333 0
DWIDTH 5 0
BBX 3 11 1 -1
VVECTOR 3 12
SWIDTH1 0 -1000
DWIDTH1 0 -15
BITMAP 
20
40
40
80
80
80
80
80
40
40
20
ENDCHAR
STARTCHAR parenright
ENCODING 41
SWIDTH 333 0
DWIDTH 5 0
BBX 3 11 1 -1
VVECTOR 3 12
SWIDTH1 0 -1000
DWIDTH1 0 -15
BITMAP 
80
40
40
20
20
20
20
20
40
40
80
ENDCHAR
STARTCHAR asterisk
ENCODING 42
SWIDTH 467 0
DWIDTH 7 0
BBX 5 5 1 4
VVECTOR 4 12
SWIDTH1 0 -1000
DWIDTH1 0 -15
BITMAP 
20
A8
70
A8
20
ENDCHAR
STARTCHAR plus
ENCODING 43
SWIDTH 467 0
DWIDTH 7 0
BBX 5 5 1 2
VVECTOR 4 12
SWIDTH1 0 -1000
DWIDTH1 0 -15
BITMAP 
20
20
F8
20
20
ENDCHAR
STARTCHAR comma
ENCODING 44
SWIDTH 267 0
DWIDTH 4 0
BBX 2 3 1 -2
VVECTOR 2 12
SWIDTH1 0 -1000
DWIDTH1 0 -15
BITMAP 
40
40
80
ENDCHAR
STARTCHAR hyphen
ENCODING 45
SWIDTH 533 0
DWIDTH 8 0
BBX 6 1 1 3
VVECTOR 4 12
SWIDTH1 0 -1000
DWIDTH1 0 -15
BITMAP 
FC
ENDCHAR
STARTCHAR period
ENCODING 46
SWIDTH 267 0
DWIDTH 4 0
BBX 1 1 2 0
VVECTOR 3 12
SWIDTH1 0 -1000
DWIDTH1 0 -15
BITMAP 
80
ENDCHAR
STARTCHAR slash
ENCODING 47
SWIDTH 467 0
DWIDTH 7 0
BBX 5 10 1 0
VVECTOR 4 12
SWIDTH1 0 -1000
DWIDTH1 0 -15
BITMAP 
08
08
10
10
20
20
40
40
80
80
ENDCHAR
STARTCHAR zero
ENCODING 48
SWIDTH 600 0
DWIDTH 9 0
BBX 7 9 1 0
VVECTOR 5 12
SWIDTH1 0 -1000
DWIDTH1 0 -15
BITMAP 
38
44
82
82
82
82
82
44
38
ENDCHAR
STARTCHAR one
ENCODING 49
SWIDTH 600 0
DWIDTH 9 0
BBX 3 9 3 0
VVECTOR 5 12
SWIDTH1 0 -1000
DWIDTH1 0 -15
BITMAP 
C0
40
40
40
40
40
40
40
E0
ENDCHAR
STARTCHAR two
ENCODING 50
SWIDTH 600 0
DWIDTH 9 0
BBX 7 9 1 0
VVECTOR 5 12
SWIDTH1 0 -1000
DWIDTH1 0 -15
BITMAP 
3C
42
82
04
08
10
20
42
FE
ENDCHAR
STARTCHAR three
ENCODING 51
SWIDTH 600 0
DWIDTH 9 0
BBX 7 9 1 0
VVECTOR 5 12
SWIDTH1 0 -1000
DWIDTH1 0 -15
BITMAP 
FE
84
08
18
04
82
82
44
38
ENDCHAR
STARTCHAR four
ENCODING 52
SWIDTH 600 0
DWIDTH 9 0
BBX 7 9 1 0
VVECTOR 5 12
SWIDTH1 0 -1000
DWIDTH1 0 -15
BITMAP 
04
0C
14
24
44
FE
04
04
0E
ENDCHAR
STARTCHAR five
ENCODING 53
SWIDTH 600 0
DWIDTH 9 0
BBX 7 9 1 0
VVECTOR 5 12
SWIDTH1 0 -1000
DWIDTH1 0 -15
BITMAP 
FC
80
80
F8
04
82
82
44
38
ENDCHAR
STARTCHAR six
ENCODING 54
SWIDTH 600 0
DWIDTH 9 0
BBX 7 9 1 0
VVECTOR 5 12
SWIDTH1 0 -1000
DWIDTH1 0 -15
BITMAP 
38
44
80
B8
C4
82
82
44
38
ENDCHAR
STARTCHAR seven
ENCODING 55
SWIDTH 600 0
DWIDTH 9 0
BBX 7 9 1 0
VVECTOR 5 12
SWIDTH1 0 -1000
DWIDTH1 0 -15
BITMAP 
FE
82
04
08
08
10
10
10
10
ENDCHAR
STARTCHAR eight
ENCODING 56
SWIDTH 600 0
DWIDTH 9 0
BBX 7 9 1 0
VVECTOR 5 12
SWIDTH1 0 -1000
DWIDTH1 0 -15
BITMAP 
38
44
44
38
44
82
82
44
38
ENDCHAR
STARTCHAR nine
ENCODING 57
SWIDTH 600 0
DWIDTH 9 0
BBX 7 9 1 0
VVECTOR 5 12
SWIDTH1 0 -1000
DWIDTH1 0 -15
BITMAP 
38
44
82
82
46
3A
02
44
38
ENDCHAR
STARTCHAR colon
ENCODING 58
SWIDTH 267 0
DWIDTH 4 0
BBX 1 6 2 1
VVECTOR 3 12
SWIDTH1 0 -1000
DWIDTH1 0 -15
BITMAP 
80
00
00
00
00
80
ENDCHAR
STARTCHAR semicolon
ENCODING 59
SWIDTH 267 0
DWIDTH 4 0
BBX 2 8 1 -1
VVECTOR 2 12
SWIDTH1 0 -1000
DWIDTH1 0 -15
BITMAP 
40
00
00
00
00
40
40
80
ENDCHAR
STARTCHAR less
ENCODING 60
SWIDTH 400 0
DWIDTH 6 0
BBX 4 7 1 1
VVECTOR 3 12
SWIDTH1 0 -1000
DWIDTH1 0 -15
BITMAP 
10
20
40
80
40
20
10
ENDCHAR
STARTCHAR equal
ENCODING 61
SWIDTH 467 0
DWIDTH 7 0
BBX 5 3 1 3
VVECTOR 4 12
SWIDTH1 0 -1000
DWIDTH1 0 -15
BITMAP 
F8
00
F8
ENDCHAR
STARTCHAR greater
ENCODING 62
SWIDTH 400 0
DWIDTH 6 0
BBX 4 7 1 1
VVECTOR 3 12
SWIDTH1 0 -1000
DWIDTH1 0 -15
BITMAP 
80
40
20
10
20
40
80
ENDCHAR
STARTCHAR question
ENCODING 63
SWIDTH 600 0
DWIDTH 9 0
BBX 5 9 2 0
VVECTOR 5 12
SWIDTH1 0 -1000
DWIDTH1 0 -15
BITMAP 
70
88
08
08
10
20
20
00
20
ENDCHAR
STARTCHAR at
ENCODING 64
SWIDTH 867 0
DWIDTH 13 0
BBX 11 10 1 -1
VVECTOR 7 12
SWIDTH1 0 -1000
DWIDTH1 0 -15
BITMAP 
3F80
4040
8020
8F20
9120
9120
9320
8DC0
4000
3C00
ENDCHAR
STARTCHAR A
ENCODING 65
SWIDTH 733 0
DWIDTH 11 0
BBX 9 9 1 0
VVECTOR 6 12
SWIDTH1 0 -1000
DWIDTH1 0 -15
BITMAP 
0800
0800
1400
1400
2200
3E00
4100
4100
E380
ENDCHAR
STARTCHAR B
ENCODING 66
SWIDTH 667 0
DWIDTH 10 0
BBX 8 9 1 0
VVECTOR 5 12
SWIDTH1 0 -1000
DWIDTH1 0 -15
BITMAP 
FC
42
42
7C
42
41
41
42
FC
ENDCHAR
STARTCHAR C
ENCODING 67
SWIDTH 667 0
DWIDTH 10 0
BBX 8 9 1 0
VVECTOR 5 12
SWIDTH1 0 -1000
DWIDTH1 0 -15
BITMAP 
3C
42
81
80
80
80
81
42
3C
ENDCHAR
STARTCHAR D
ENCODING 68
SWIDTH 667 0
DWIDTH 10 0
BBX 8 9 1 0
VVECTOR 5 12
SWIDTH1 0 -1000
DWIDTH1 0 -15
BITMAP 
FC
42
41
41
41
41
41
42
FC
ENDCHAR
STARTCHAR E
ENCODING 69
SWIDTH 600 0
DWIDTH 9 0
BBX 7 9 1 0
VVECTOR 5 12
SWIDTH1 0 -1000
DWIDTH1 0 -15
BITMAP 
FE
42
40
48
78
48
40
42
FE
ENDCHAR
STARTCHAR F
ENCODING 70
SWIDTH 600 0
DWIDTH 9 0
BBX 7 9 1 0
VVECTOR 5 12
SWIDTH1 0 -1000
DWIDTH1 0 -15
BITMAP 
FE
42
40
48
78
48
40
40
E0
ENDCHAR
STARTCHAR G
ENCODING 71
SWIDTH 667 0
DWIDTH 10 0
BBX 8 9 1 0
VVECTOR 5 12
SWIDTH1 0 -1000
DWIDTH1 0 -15
BITMAP 
3C
42
81
80
8F
81
81
43
3D
ENDCHAR
STARTCHAR H
ENCODING 72
SWIDTH 667 0
DWIDTH 10 0
BBX 8 9 1 0
VVECTOR 5 12
SWIDTH1 0 -1000
DWIDTH1 0 -15
BITMAP 
E7
42
42
42
7E
42
42
42
E7
ENDCHAR
STARTCHAR I
ENCODING 73
SWIDTH 333 0
DWIDTH 5 0
BBX 3 9 1 0
VVECTOR 3 12
SWIDTH1 0 -1000
DWIDTH1 0 -15
BITMAP 
E0
40
40
40
40
40
40
40
E0
ENDCHAR
STARTCHAR J
ENCODING 74
SWIDTH 667 0
DWIDTH 10 0
BBX 8 9 1 0
VVECTOR 5 12
SWIDTH1 0 -1000
DWIDTH1 0 -15
BITMAP 
07
02
02
02
02
82
82
44
38
ENDCHAR
STARTCHAR K
ENCODING 75
SWIDTH 667 0
DWIDTH 10 0
BBX 8 9 1 0
VVECTOR 5 12
SWIDTH1 0 -1000
DWIDTH1 0 -15
BITMAP 
EF
44
48
50
60
50
48
44
EF
ENDCHAR
STARTCHAR L
ENCODING 76
SWIDTH 600 0
DWIDTH 9 0
BBX 7 9 1 0
VVECTOR 5 12
SWIDTH1 0 -1000
DWIDTH1 0 -15
BITMAP 
E0
40
40
40
40
40
40
42
FE
ENDCHAR
STARTCHAR M
ENCODING 77
SWIDTH 1133 0
DWIDTH 17 0
BBX 15 9 1 0
VVECTOR 9 12
SWIDTH1 0 -1000
DWIDTH1 0 -15
BITMAP 
DC70
6288
4104
4104
4104
4104
4104
4104
F38E
ENDCHAR
STARTCHAR N
ENCODING 78
SWIDTH 733 0
DWIDTH 11 0
BBX 9 9 1 0
VVECTOR 6 12
SWIDTH1 0 -1000
DWIDTH1 0 -15
BITMAP 
DC00
6200
4100
4100
4100
4100
4100
4100
E380
ENDCHAR
STARTCHAR O
ENCODING 79
SWIDTH 667 0
DWIDTH 10 0
BBX 8 9 1 0
VVECTOR 5 12
SWIDTH1 0 -1000
DWIDTH1 0 -15
BITMAP 
3C
42
81
81
81
81
81
42
3C
ENDCHAR
STARTCHAR P
ENCODING 80
SWIDTH 667 0
DWIDTH 10 0
BBX 8 9 1 0
VVECTOR 5 12
SWIDTH1 0 -1000
DWIDTH1 0 -15
BITMAP 
FC
42
41
41
42
7C
40
40
E0
ENDCHAR
STARTCHAR Q
ENCODING 81
SWIDTH 667 0
DWIDTH 10 0
BBX 8 10 1 -1
VVECTOR 5 12
SWIDTH1 0 -1000
DWIDTH1 0 -15
BITMAP 
3C
42
81
81
81
81
91
4A
3C
03
ENDCHAR
STARTCHAR R
ENCODING 82
SWIDTH 733 0
DWIDTH 11 0
BBX 9 9 1 0
VVECTOR 6 12
SWIDTH1 0 -1000
DWIDTH1 0 -15
BITMAP 
FC00
4200
4100
4100
4200
7C00
4400
4200
E180
ENDCHAR
STARTCHAR S
ENCODING 83
SWIDTH 600 0
DWIDTH 9 0
BBX 7 9 1 0
VVECTOR 5 12
SWIDTH1 0 -1000
DWIDTH1 0 -15
BITMAP 
7A
86
82
78
04
02
82
C4
B8
ENDCHAR
STARTCHAR T
ENCODING 84
SWIDTH 600 0
DWIDTH 9 0
BBX 7 9 1 0
VVECTOR 5 12
SWIDTH1 0 -1000
DWIDTH1 0 -15
BITMAP 
FE
92
10
10
10
10
10
10
38
ENDCHAR
STARTCHAR U
ENCODING 85
SWIDTH 733 0
DWIDTH 11 0
BBX 9 9 1 0
VVECTOR 6 12
SWIDTH1 0 -1000
DWIDTH1 0 -15
BITMAP 
E380
4100
4100
4100
4100
4100
4100
2200
1C00
ENDCHAR
STARTCHAR V
ENCODING 86
SWIDTH 733 0
DWIDTH 11 0
BBX 9 9 1 0
VVECTOR 6 12
SWIDTH1 0 -1000
DWIDTH1 0 -15
BITMAP 
E380
4100
4100
2200
2200
1400
1400
0800
0800
ENDCHAR
STARTCHAR W
ENCODING 87
SWIDTH 1000 0
DWIDTH 15 0
BBX 13 9 1 0
VVECTOR 8 12
SWIDTH1 0 -1000
DWIDTH1 0 -15
BITMAP 
E038
4010
4010
2220
2220
1540
1540
0880
0880
ENDCHAR
STARTCHAR X
ENCODING 88
SWIDTH 733 0
DWIDTH 11 0
BBX 9 9 1 0
VVECTOR 6 12
SWIDTH1 0 -1000
DWIDTH1 0 -15
BITMAP 
F380
4100
2200
1400
0800
1400
2200
4100
E380
ENDCHAR
STARTCHAR Y
ENCODING 89
SWIDTH 733 0
DWIDTH 11 0
BBX 9 9 1 0
VVECTOR 6 12
SWIDTH1 0 -1000
DWIDTH1 0 -15
BITMAP 
E380
4100
2200
1400
0800
0800
0800
0800
1C00
ENDCHAR
STARTCHAR Z
ENCODING 90
SWIDTH 667 0
DWIDTH 10 0
BBX 7 9 1 0
VVECTOR 5 12
SWIDTH1 0 -1000
DWIDTH1 0 -15
BITMAP 
FE
82
04
08
10
20
40
82
FE
ENDCHAR
STARTCHAR bracketleft
ENCODING 91
SWIDTH 333 0
DWIDTH 5 0
BBX 3 11 1 -1
VVECTOR 3 12
SWIDTH1 0 -1000
DWIDTH1 0 -15
BITMAP 
E0
80
80
80
80
80
80
80
80
80
E0
ENDCHAR
STARTCHAR backslash
ENCODING 92
SWIDTH 467 0
DWIDTH 7 0
BBX 5 10 1 0
VVECTOR 4 12
SWIDTH1 0 -1000
DWIDTH1 0 -15
BITMAP 
80
80
40
40
20
20
10
10
08
08
ENDCHAR
STARTCHAR bracketright
ENCODING 93
SWIDTH 333 0
DWIDTH 5 0
BBX 3 11 1 -1
VVECTOR 3 12
SWIDTH1 0 -1000
DWIDTH1 0 -15
BITMAP 
E0
20
20
20
20
20
20
20
20
20
E0
ENDCHAR
STARTCHAR asciicircum
ENCODING 94
SWIDTH 467 0
DWIDTH 7 0
BBX 5 3 1 7
VVECTOR 4 12
SWIDTH1 0 -1000
DWIDTH1 0 -15
BITMAP 
20
50
88
ENDCHAR
STARTCHAR underscore
ENCODING 95
SWIDTH 600 0
DWIDTH 9 0
BBX 9 1 0 0
VVECTOR 5 12
SWIDTH1 0 -1000
DWIDTH1 0 -15
BITMAP 
FF80
ENDCHAR
STARTCHAR grave
ENCODING 96
SWIDTH 333 0
DWIDTH 5 0
BBX 3 3 1 7
VVECTOR 3 12
SWIDTH1 0 -1000
DWIDTH1 0 -15
BITMAP 
80
40
20
ENDCHAR
STARTCHAR a
ENCODING 97
SWIDTH 600 0
DWIDTH 9 0
BBX 8 7 0 0
VVECTOR 4 12
SWIDTH1 0 -1000
DWIDTH1 0 -15
BITMAP 
3E
42
82
82
82
46
3B
ENDCHAR
STARTCHAR b
ENCODING 98
SWIDTH 600 0
DWIDTH 9 0
BBX 8 9 0 0
VVECTOR 4 12
SWIDTH1 0 -1000
DWIDTH1 0 -15
BITMAP 
C0
40
5C
62
41
41
41
62
DC
ENDCHAR
STARTCHAR c
ENCODING 99
SWIDTH 533 0
DWIDTH 8 0
BBX 7 7 0 0
VVECTOR 4 12
SWIDTH1 0 -1000
DWIDTH1 0 -15
BITMAP 
3C
42
80
80
80
42
3C
ENDCHAR
STARTCHAR d
ENCODING 100
SWIDTH 600 0
DWIDTH 9 0
BBX 8 9 0 0
VVECTOR 4 12
SWIDTH1 0 -1000
DWIDTH1 0 -15
BITMAP 
06
02
3A
46
82
82
82
46
3B
ENDCHAR
STARTCHAR e
ENCODING 101
SWIDTH 533 0
DWIDTH 8 0
BBX 7 7 0 0
VVECTOR 4 12
SWIDTH1 0 -1000
DWIDTH1 0 -15
BITMAP 
38
44
FE
80
82
44
38
ENDCHAR
STARTCHAR f
ENCODING 102
SWIDTH 333 0
DWIDTH 5 0
BBX 4 9 0 0
VVECTOR 2 12
SWIDTH1 0 -1000
DWIDTH1 0 -15
BITMAP 
30
40
F0
40
40
40
40
40
E0
ENDCHAR
STARTCHAR g
ENCODING 103
SWIDTH 600 0
DWIDTH 9 0
BBX 8 10 0 -3
VVECTOR 4 12
SWIDTH1 0 -1000
DWIDTH1 0 -15
BITMAP 
3B
46
82
82
82
46
3A
02
44
38
ENDCHAR
STARTCHAR h
ENCODING 104
SWIDTH 667 0
DWIDTH 10 0
BBX 9 9 0 0
VVECTOR 5 12
SWIDTH1 0 -1000
DWIDTH1 0 -15
BITMAP 
C000
4000
5C00
6200
4100
4100
4100
4100
E380
ENDCHAR
STARTCHAR i
ENCODING 105
SWIDTH 333 0
DWIDTH 5 0
BBX 3 9 1 0
VVECTOR 3 12
SWIDTH1 0 -1000
DWIDTH1 0 -15
BITMAP 
40
00
C0
40
40
40
40
40
E0
ENDCHAR
STARTCHAR j
ENCODING 106
SWIDTH 467 0
DWIDTH 7 0
BBX 5 12 0 -3
VVECTOR 3 12
SWIDTH1 0 -1000
DWIDTH1 0 -15
BITMAP 
08
00
18
08
08
08
08
08
08
08
88
70
ENDCHAR
STARTCHAR k
ENCODING 107
SWIDTH 533 0
DWIDTH 8 0
BBX 7 9 0 0
VVECTOR 4 12
SWIDTH1 0 -1000
DWIDTH1 0 -15
BITMAP 
C0
40
44
48
50
60
50
48
E6
ENDCHAR
STARTCHAR l
ENCODING 108
SWIDTH 267 0
DWIDTH 4 0
BBX 3 9 0 0
VVECTOR 2 12
SWIDTH1 0 -1000
DWIDTH1 0 -15
BITMAP 
C0
40
40
40
40
40
40
40
E0
ENDCHAR
STARTCHAR m
ENCODING 109
SWIDTH 1067 0
DWIDTH 16 0
BBX 15 7 0 0
VVECTOR 8 12
SWIDTH1 0 -1000
DWIDTH1 0 -15
BITMAP 
DC70
6288
4104
4104
4104
4104
F38E
ENDCHAR
STARTCHAR n
ENCODING 110
SWIDTH 667 0
DWIDTH 10 0
BBX 9 7 0 0
VVECTOR 5 12
SWIDTH1 0 -1000
DWIDTH1 0 -15
BITMAP 
DC00
6200
4100
4100
4100
4100
E380
ENDCHAR
STARTCHAR o
ENCODING 111
SWIDTH 533 0
DWIDTH 8 0
BBX 7 7 0 0
VVECTOR 4 12
SWIDTH1 0 -1000
DWIDTH1 0 -15
BITMAP 
38
44
82
82
82
44
38
ENDCHAR
STARTCHAR p
ENCODING 112
SWIDTH 600 0
DWIDTH 9 0
BBX 8 10 0 -3
VVECTOR 4 12
SWIDTH1 0 -1000
DWIDTH1 0 -15
BITMAP 
DC
62
41
41
41
62
5C
40
40
E0
ENDCHAR
STARTCHAR q
ENCODING 113
SWIDTH 533 0
DWIDTH 8 0
BBX 8 10 0 -3
VVECTOR 4 12
SWIDTH1 0 -1000
DWIDTH1 0 -15
BITMAP 
3A
46
82
82
82
46
3A
02
02
07
ENDCHAR
STARTCHAR r
ENCODING 114
SWIDTH 533 0
DWIDTH 8 0
BBX 7 7 0 0
VVECTOR 4 12
SWIDTH1 0 -1000
DWIDTH1 0 -15
BITMAP 
DC
62
40
40
40
40
E0
ENDCHAR
STARTCHAR s
ENCODING 115
SWIDTH 467 0
DWIDTH 7 0
BBX 6 7 0 0
VVECTOR 3 12
SWIDTH1 0 -1000
DWIDTH1 0 -15
BITMAP 
78
84
80
78
04
84
78
ENDCHAR
STARTCHAR t
ENCODING 116
SWIDTH 400 0
DWIDTH 6 0
BBX 5 9 0 0
VVECTOR 3 12
SWIDTH1 0 -1000
DWIDTH1 0 -15
BITMAP 
C0
40
F0
40
40
40
40
48
30
ENDCHAR
STARTCHAR u
ENCODING 117
SWIDTH 667 0
DWIDTH 10 0
BBX 9 7 0 0
VVECTOR 5 12
SWIDTH1 0 -1000
DWIDTH1 0 -15
BITMAP 
C300
4100
4100
4100
4100
2300
1D80
ENDCHAR
STARTCHAR v
ENCODING 118
SWIDTH 667 0
DWIDTH 10 0
BBX 9 7 0 0
VVECTOR 5 12
SWIDTH1 0 -1000
DWIDTH1 0 -15
BITMAP 
E380
4100
2200
2200
1400
0800
0800
ENDCHAR
STARTCHAR w
ENCODING 119
SWIDTH 933 0
DWIDTH 14 0
BBX 13 7 0 0
VVECTOR 7 12
SWIDTH1 0 -1000
DWIDTH1 0 -15
BITMAP 
E038
4010
2220
2220
1540
0880
0880
ENDCHAR
STARTCHAR x
ENCODING 120
SWIDTH 533 0
DWIDTH 8 0
BBX 7 7 0 0
VVECTOR 4 12
SWIDTH1 0 -1000
DWIDTH1 0 -15
BITMAP 
EE
44
28
10
28
44
EE
ENDCHAR
STARTCHAR y
ENCODING 121
SWIDTH 667 0
DWIDTH 10 0
BBX 9 10 0 -3
VVECTOR 5 12
SWIDTH1 0 -1000
DWIDTH1 0 -15
BITMAP 
E380
4100
4100
4100
4100
2300
1D00
0100
2200
1C00
ENDCHAR
STARTCHAR z
ENCODING 122
SWIDTH 533 0
DWIDTH 8 0
BBX 7 7 0 0
VVECTOR 4 12
SWIDTH1 0 -1000
DWIDTH1 0 -15
BITMAP 
FE
84
08
10
20
42
FE
ENDCHAR
STARTCHAR braceleft
ENCODING 123
SWIDTH 400 0
DWIDTH 6 0
BBX 4 11 1 -1
VVECTOR 3 12
SWIDTH1 0 -1000
DWIDTH1 0 -15
BITMAP 
30
40
40
40
40
80
40
40
40
40
30
ENDCHAR
STARTCHAR bar
ENCODING 124
SWIDTH 200 0
DWIDTH 3 0
BBX 1 11 1 -1
VVECTOR 2 12
SWIDTH1 0 -1000
DWIDTH1 0 -15
BITMAP 
80
80
80
80
80
80
80
80
80
80
80
ENDCHAR
STARTCHAR braceright
ENCODING 125
SWIDTH 400 0
DWIDTH 6 0
BBX 4 11 1 -1
VVECTOR 3 12
SWIDTH1 0 -1000
DWIDTH1 0 -15
BITMAP 
C0
20
20
20
20
10
20
20
20
20
C0
ENDCHAR
STARTCHAR asciitilde
ENCODING 126
SWIDTH 533 0
DWIDTH 8 0
BBX 6 2 1 7
VVECTOR 4 12
SWIDTH1 0 -1000
DWIDTH1 0 -15
BITMAP 
64
98
ENDCHAR
STARTCHAR char7F
ENCODING 127
SWIDTH 0 0
DWIDTH 0 0
BBX 0 0 0 -3
VVECTOR 0 -3
SWIDTH1 0 0
DWIDTH1 0 0
BITMAP 
ENDCHAR
STARTCHAR Adieresis
ENCODING 128
SWIDTH 733 0
DWIDTH 11 0
BBX 9 11 1 0
VVECTOR 6 12
SWIDTH1 0 -1000
DWIDTH1 0 -15
BITMAP 
1400
0000
0800
0800
1400
1400
2200
3E00
4100
4100
E380
ENDCHAR
STARTCHAR Aring
ENCODING 129
SWIDTH 733 0
DWIDTH 11 0
BBX 9 12 1 0
VVECTOR 6 12
SWIDTH1 0 -1000
DWIDTH1 0 -15
BITMAP 
1C00
2200
2200
1C00
0800
1400
1400
2200
3E00
4100
4100
E380
ENDCHAR
STARTCHAR Ccedilla
ENCODING 130
SWIDTH 667 0
DWIDTH 10 0
BBX 8 12 1 -3
VVECTOR 5 12
SWIDTH1 0 -1000
DWIDTH1 0 -15
BITMAP 
3C
42
81
80
80
80
81
42
3C
08
08
10
ENDCHAR
STARTCHAR Eacute
ENCODING 131
SWIDTH 600 0
DWIDTH 9 0
BBX 7 12 1 0
VVECTOR 5 12
SWIDTH1 0 -1000
DWIDTH1 0 -15
BITMAP 
08
10
00
FE
42
40
48
78
48
40
42
FE
ENDCHAR
STARTCHAR Ntilde
ENCODING 132
SWIDTH 733 0
DWIDTH 11 0
BBX 9 12 1 0
VVECTOR 6 12
SWIDTH1 0 -1000
DWIDTH1 0 -15
BITMAP 
3200
4C00
0000
DC00
6200
4100
4100
4100
4100
4100
4100
E380
ENDCHAR
STARTCHAR Odieresis
ENCODING 133
SWIDTH 667 0
DWIDTH 10 0
BBX 8 11 1 0
VVECTOR 5 12
SWIDTH1 0 -1000
DWIDTH1 0 -15
BITMAP 
24
00
3C
42
81
81
81
81
81
42
3C
ENDCHAR
STARTCHAR Udieresis
ENCODING 134
SWIDTH 733 0
DWIDTH 11 0
BBX 9 11 1 0
VVECTOR 6 12
SWIDTH1 0 -1000
DWIDTH1 0 -15
BITMAP 
2400
0000
C300
4100
4100
4100
4100
4100
4100
2300
1D80
ENDCHAR
STARTCHAR aacute
ENCODING 135
SWIDTH 600 0
DWIDTH 9 0
BBX 8 10 0 0
VVECTOR 4 12
SWIDTH1 0 -1000
DWIDTH1 0 -15
BITMAP 
08
10
00
3E
42
82
82
82
46
3B
ENDCHAR
STARTCHAR agrave
ENCODING 136
SWIDTH 600 0
DWIDTH 9 0
BBX 8 10 0 0
VVECTOR 4 12
SWIDTH1 0 -1000
DWIDTH1 0 -15
BITMAP 
10
08
00
3E
42
82
82
82
46
3B
ENDCHAR
STARTCHAR acircumflex
ENCODING 137
SWIDTH 600 0
DWIDTH 9 0
BBX 8 11 0 0
VVECTOR 4 12
SWIDTH1 0 -1000
DWIDTH1 0 -15
BITMAP 
08
14
22
00
3E
42
82
82
82
46
3B
ENDCHAR
STARTCHAR adieresis
ENCODING 138
SWIDTH 600 0
DWIDTH 9 0
BBX 8 9 0 0
VVECTOR 4 12
SWIDTH1 0 -1000
DWIDTH1 0 -15
BITMAP 
24
00
3E
42
82
82
82
46
3B
ENDCHAR
STARTCHAR atilde
ENCODING 139
SWIDTH 600 0
DWIDTH 9 0
BBX 8 10 0 0
VVECTOR 4 12
SWIDTH1 0 -1000
DWIDTH1 0 -15
BITMAP 
32
4C
00
3E
42
82
82
82
46
3B
ENDCHAR
STARTCHAR aring
ENCODING 140
SWIDTH 600 0
DWIDTH 9 0
BBX 8 12 0 0
VVECTOR 4 12
SWIDTH1 0 -1000
DWIDTH1 0 -15
BITMAP 
18
24
24
18
00
3E
42
82
82
82
46
3B
ENDCHAR
STARTCHAR ccedilla
ENCODING 141
SWIDTH 533 0
DWIDTH 8 0
BBX 7 10 0 -3
VVECTOR 4 12
SWIDTH1 0 -1000
DWIDTH1 0 -15
BITMAP 
3C
42
80
80
80
42
3C
08
08
10
ENDCHAR
STARTCHAR eacute
ENCODING 142
SWIDTH 533 0
DWIDTH 8 0
BBX 7 10 0 0
VVECTOR 4 12
SWIDTH1 0 -1000
DWIDTH1 0 -15
BITMAP 
08
10
00
38
44
FE
80
82
44
38
ENDCHAR
STARTCHAR egrave
ENCODING 143
SWIDTH 533 0
DWIDTH 8 0
BBX 7 10 0 0
VVECTOR 4 12
SWIDTH1 0 -1000
DWIDTH1 0 -15
BITMAP 
20
10
00
38
44
FE
80
82
44
38
ENDCHAR
STARTCHAR ecircumflex
ENCODING 144
SWIDTH 533 0
DWIDTH 8 0
BBX 7 11 0 0
VVECTOR 4 12
SWIDTH1 0 -1000
DWIDTH1 0 -15
BITMAP 
10
28
44
00
38
44
FE
80
82
44
38
ENDCHAR
STARTCHAR edieresis
ENCODING 145
SWIDTH 533 0
DWIDTH 8 0
BBX 7 9 0 0
VVECTOR 4 12
SWIDTH1 0 -1000
DWIDTH1 0 -15
BITMAP 
24
00
38
44
FE
80
82
44
38
ENDCHAR
STARTCHAR iacute
ENCODING 146
SWIDTH 333 0
DWIDTH 5 0
BBX 3 10 1 0
VVECTOR 3 12
SWIDTH1 0 -1000
DWIDTH1 0 -15
BITMAP 
40
80
00
C0
40
40
40
40
40
E0
ENDCHAR
STARTCHAR igrave
ENCODING 147
SWIDTH 333 0
DWIDTH 5 0
BBX 3 10 1 0
VVECTOR 3 12
SWIDTH1 0 -1000
DWIDTH1 0 -15
BITMAP 
80
40
00
C0
40
40
40
40
40
E0
ENDCHAR
STARTCHAR icircumflex
ENCODING 148
SWIDTH 467 0
DWIDTH 7 0
BBX 5 11 1 0
VVECTOR 4 12
SWIDTH1 0 -1000
DWIDTH1 0 -15
BITMAP 
20
50
88
00
60
20
20
20
20
20
70
ENDCHAR
STARTCHAR idieresis
ENCODING 149
SWIDTH 333 0
DWIDTH 5 0
BBX 4 9 0 0
VVECTOR 2 12
SWIDTH1 0 -1000
DWIDTH1 0 -15
BITMAP 
90
00
60
20
20
20
20
20
70
ENDCHAR
STARTCHAR ntilde
ENCODING 150
SWIDTH 667 0
DWIDTH 10 0
BBX 9 10 0 0
VVECTOR 5 12
SWIDTH1 0 -1000
DWIDTH1 0 -15
BITMAP 
3200
4C00
0000
DC00
6200
4100
4100
4100
4100
E380
ENDCHAR
STARTCHAR oacute
ENCODING 151
SWIDTH 533 0
DWIDTH 8 0
BBX 7 10 0 0
VVECTOR 4 12
SWIDTH1 0 -1000
DWIDTH1 0 -15
BITMAP 
08
10
00
38
44
82
82
82
44
38
ENDCHAR
STARTCHAR ograve
ENCODING 152
SWIDTH 533 0
DWIDTH 8 0
BBX 7 10 0 0
VVECTOR 4 12
SWIDTH1 0 -1000
DWIDTH1 0 -15
BITMAP 
20
10
00
38
44
82
82
82
44
38
ENDCHAR
STARTCHAR ocircumflex
ENCODING 153
SWIDTH 533 0
DWIDTH 8 0
BBX 7 11 0 0
VVECTOR 4 12
SWIDTH1 0 -1000
DWIDTH1 0 -15
BITMAP 
10
28
44
00
38
44
82
82
82
44
38
ENDCHAR
STARTCHAR odieresis
ENCODING 154
SWIDTH 533 0
DWIDTH 8 0
BBX 7 9 0 0
VVECTOR 4 12
SWIDTH1 0 -1000
DWIDTH1 0 -15
BITMAP 
28
00
38
44
82
82
82
44
38
ENDCHAR
STARTCHAR otilde
ENCODING 155
SWIDTH 533 0
DWIDTH 8 0
BBX 7 10 0 0
VVECTOR 4 12
SWIDTH1 0 -1000
DWIDTH1 0 -15
BITMAP 
64
98
00
38
44
82
82
82
44
38
ENDCHAR
STARTCHAR uacute
ENCODING 156
SWIDTH 667 0
DWIDTH 10 0
BBX 9 10 0 0
VVECTOR 5 12
SWIDTH1 0 -1000
DWIDTH1 0 -15
BITMAP 
0400
0800
0000
C300
4100
4100
4100
4100
2300
1D80
ENDCHAR
STARTCHAR ugrave
ENCODING 157
SWIDTH 667 0
DWIDTH 10 0
BBX 9 10 0 0
VVECTOR 5 12
SWIDTH1 0 -1000
DWIDTH1 0 -15
BITMAP 
1000
0800
0000
C300
4100
4100
4100
4100
2300
1D80
ENDCHAR
STARTCHAR ucircumflex
ENCODING 158
SWIDTH 667 0
DWIDTH 10 0
BBX 9 11 0 0
VVECTOR 5 12
SWIDTH1 0 -1000
DWIDTH1 0 -15
BITMAP 
0800
1400
2200
0000
C300
4100
4100
4100
4100
2300
1D80
ENDCHAR
STARTCHAR udieresis
ENCODING 159
SWIDTH 667 0
DWIDTH 10 0
BBX 9 9 0 0
VVECTOR 5 12
SWIDTH1 0 -1000
DWIDTH1 0 -15
BITMAP 
2400
0000
C300
4100
4100
4100
4100
2300
1D80
ENDCHAR
STARTCHAR dagger
ENCODING 160
SWIDTH 267 0
DWIDTH 4 0
BBX 3 6 0 4
VVECTOR 2 12
SWIDTH1 0 -1000
DWIDTH1 0 -15
BITMAP 
40
E0
40
40
40
40
ENDCHAR
STARTCHAR degree
ENCODING 161
SWIDTH 333 0
DWIDTH 5 0
BBX 4 4 0 6
VVECTOR 2 12
SWIDTH1 0 -1000
DWIDTH1 0 -15
BITMAP 
60
90
90
60
ENDCHAR
STARTCHAR cent
ENCODING 162
SWIDTH 533 0
DWIDTH 8 0
BBX 6 11 1 -1
VVECTOR 4 12
SWIDTH1 0 -1000
DWIDTH1 0 -15
BITMAP 
10
10
38
54
90
90
90
54
38
10
10
ENDCHAR
STARTCHAR sterling
ENCODING 163
SWIDTH 600 0
DWIDTH 9 0
BBX 7 9 1 0
VVECTOR 5 12
SWIDTH1 0 -1000
DWIDTH1 0 -15
BITMAP 
38
44
40
40
F0
40
40
42
FC
ENDCHAR
STARTCHAR section
ENCODING 164
SWIDTH 467 0
DWIDTH 7 0
BBX 6 11 0 -1
VVECTOR 3 12
SWIDTH1 0 -1000
DWIDTH1 0 -15
BITMAP 
38
44
40
60
98
84
64
18
04
44
38
ENDCHAR
STARTCHAR bullet
ENCODING 165
SWIDTH 467 0
DWIDTH 7 0
BBX 5 5 1 2
VVECTOR 4 12
SWIDTH1 0 -1000
DWIDTH1 0 -15
BITMAP 
70
F8
F8
F8
70
ENDCHAR
STARTCHAR paragraph
ENCODING 166
SWIDTH 667 0
DWIDTH 10 0
BBX 8 9 1 0
VVECTOR 5 12
SWIDTH1 0 -1000
DWIDTH1 0 -15
BITMAP 
3F
4A
8A
8A
8A
4A
3A
0A
0A
ENDCHAR
STARTCHAR germandbls
ENCODING 167
SWIDTH 533 0
DWIDTH 8 0
BBX 7 9 0 0
VVECTOR 4 12
SWIDTH1 0 -1000
DWIDTH1 0 -15
BITMAP 
1C
22
42
4C
42
42
42
44
D8
ENDCHAR
STARTCHAR registered
ENCODING 168
SWIDTH 667 0
DWIDTH 10 0
BBX 8 8 1 0
VVECTOR 5 12
SWIDTH1 0 -1000
DWIDTH1 0 -15
BITMAP 
3C
42
B9
A5
B9
A5
42
3C
ENDCHAR
STARTCHAR copyright
ENCODING 169
SWIDTH 667 0
DWIDTH 10 0
BBX 8 8 1 0
VVECTOR 5 12
SWIDTH1 0 -1000
DWIDTH1 0 -15
BITMAP 
3C
42
99
A1
A1
99
42
3C
ENDCHAR
STARTCHAR trademark
ENCODING 170
SWIDTH 733 0
DWIDTH 11 0
BBX 9 4 1 5
VVECTOR 6 12
SWIDTH1 0 -1000
DWIDTH1 0 -15
BITMAP 
E880
4D80
4A80
4880
ENDCHAR
STARTCHAR acute
ENCODING 171
SWIDTH 333 0
DWIDTH 5 0
BBX 3 3 1 6
VVECTOR 3 12
SWIDTH1 0 -1000
DWIDTH1 0 -15
BITMAP 
20
40
80
ENDCHAR
STARTCHAR dieresis
ENCODING 172
SWIDTH 400 0
DWIDTH 6 0
BBX 4 1 1 8
VVECTOR 3 12
SWIDTH1 0 -1000
DWIDTH1 0 -15
BITMAP 
90
ENDCHAR
STARTCHAR AE
ENCODING 174
SWIDTH 867 0
DWIDTH 13 0
BBX 11 9 1 0
VVECTOR 7 12
SWIDTH1 0 -1000
DWIDTH1 0 -15
BITMAP 
0FE0
0C20
1400
1480
3F80
2480
4400
4420
EFE0
ENDCHAR
STARTCHAR Oslash
ENCODING 175
SWIDTH 667 0
DWIDTH 10 0
BBX 8 9 1 0
VVECTOR 5 12
SWIDTH1 0 -1000
DWIDTH1 0 -15
BITMAP 
3D
42
85
89
91
91
A1
42
BC
ENDCHAR
STARTCHAR yen
ENCODING 180
SWIDTH 600 0
DWIDTH 9 0
BBX 7 9 1 0
VVECTOR 5 12
SWIDTH1 0 -1000
DWIDTH1 0 -15
BITMAP 
82
44
28
7C
10
7C
10
10
10
ENDCHAR
STARTCHAR ordfeminine
ENCODING 187
SWIDTH 533 0
DWIDTH 8 0
BBX 6 7 1 2
VVECTOR 4 12
SWIDTH1 0 -1000
DWIDTH1 0 -15
BITMAP 
78
88
88
98
6C
00
FC
ENDCHAR
STARTCHAR ordmasculine
ENCODING 188
SWIDTH 467 0
DWIDTH 7 0
BBX 5 7 1 2
VVECTOR 4 12
SWIDTH1 0 -1000
DWIDTH1 0 -15
BITMAP 
70
88
88
88
70
00
F8
ENDCHAR
STARTCHAR ae
ENCODING 190
SWIDTH 933 0
DWIDTH 14 0
BBX 13 7 0 0
VVECTOR 7 12
SWIDTH1 0 -1000
DWIDTH1 0 -15
BITMAP 
3EE0
4310
83F8
8200
8208
4710
3AE0
ENDCHAR
STARTCHAR oslash
ENCODING 191
SWIDTH 533 0
DWIDTH 8 0
BBX 7 7 0 0
VVECTOR 4 12
SWIDTH1 0 -1000
DWIDTH1 0 -15
BITMAP 
3A
44
8A
92
A2
44
B8
ENDCHAR
STARTCHAR questiondown
ENCODING 192
SWIDTH 533 0
DWIDTH 8 0
BBX 5 9 1 0
VVECTOR 4 12
SWIDTH1 0 -1000
DWIDTH1 0 -15
BITMAP 
20
00
20
20
40
80
80
88
70
ENDCHAR
STARTCHAR exclamdown
ENCODING 193
SWIDTH 267 0
DWIDTH 4 0
BBX 1 9 1 0
VVECTOR 2 12
SWIDTH1 0 -1000
DWIDTH1 0 -15
BITMAP 
80
00
80
80
80
80
80
80
80
ENDCHAR
STARTCHAR guillemotleft
ENCODING 199
SWIDTH 600 0
DWIDTH 9 0
BBX 7 7 1 0
VVECTOR 5 12
SWIDTH1 0 -1000
DWIDTH1 0 -15
BITMAP 
12
24
48
90
48
24
12
ENDCHAR
STARTCHAR guillemotright
ENCODING 200
SWIDTH 600 0
DWIDTH 9 0
BBX 7 7 1 0
VVECTOR 5 12
SWIDTH1 0 -1000
DWIDTH1 0 -15
BITMAP 
90
48
24
12
24
48
90
ENDCHAR
STARTCHAR ellipsis
ENCODING 201
SWIDTH 600 0
DWIDTH 9 0
BBX 7 1 1 0
VVECTOR 5 12
SWIDTH1 0 -1000
DWIDTH1 0 -15
BITMAP 
92
ENDCHAR
STARTCHAR uni00A0
ENCODING 202
SWIDTH 600 0
DWIDTH 9 0
BBX 0 0 9 -3
VVECTOR 9 -3
SWIDTH1 0 0
DWIDTH1 0 0
BITMAP 
ENDCHAR
STARTCHAR Agrave
ENCODING 203
SWIDTH 733 0
DWIDTH 11 0
BBX 9 12 1 0
VVECTOR 6 12
SWIDTH1 0 -1000
DWIDTH1 0 -15
BITMAP 
0800
0400
0000
0800
0800
1400
1400
2200
3E00
4100
4100
E380
ENDCHAR
STARTCHAR Atilde
ENCODING 204
SWIDTH 733 0
DWIDTH 11 0
BBX 9 12 1 0
VVECTOR 6 12
SWIDTH1 0 -1000
DWIDTH1 0 -15
BITMAP 
1900
2600
0000
0800
0800
1400
1400
2200
3E00
4100
4100
E380
ENDCHAR
STARTCHAR Otilde
ENCODING 205
SWIDTH 667 0
DWIDTH 10 0
BBX 8 12 1 0
VVECTOR 5 12
SWIDTH1 0 -1000
DWIDTH1 0 -15
BITMAP 
32
4C
00
3C
42
81
81
81
81
81
42
3C
ENDCHAR
STARTCHAR OE
ENCODING 206
SWIDTH 933 0
DWIDTH 14 0
BBX 12 9 1 0
VVECTOR 7 12
SWIDTH1 0 -1000
DWIDTH1 0 -15
BITMAP 
3BF0
4610
8200
8240
83C0
8240
8200
4610
3BF0
ENDCHAR
STARTCHAR oe
ENCODING 207
SWIDTH 933 0
DWIDTH 14 0
BBX 13 7 0 0
VVECTOR 7 12
SWIDTH1 0 -1000
DWIDTH1 0 -15
BITMAP 
38E0
4510
83F8
8200
8208
4510
38E0
ENDCHAR
STARTCHAR endash
ENCODING 208
SWIDTH 467 0
DWIDTH 7 0
BBX 5 1 1 4
VVECTOR 4 12
SWIDTH1 0 -1000
DWIDTH1 0 -15
BITMAP 
F8
ENDCHAR
STARTCHAR emdash
ENCODING 209
SWIDTH 533 0
DWIDTH 8 0
BBX 7 1 0 4
VVECTOR 4 12
SWIDTH1 0 -1000
DWIDTH1 0 -15
BITMAP 
FE
ENDCHAR
STARTCHAR quotedblleft
ENCODING 210
SWIDTH 400 0
DWIDTH 6 0
BBX 4 3 1 6
VVECTOR 3 12
SWIDTH1 0 -1000
DWIDTH1 0 -15
BITMAP 
50
A0
A0
ENDCHAR
STARTCHAR quotedblright
ENCODING 211
SWIDTH 400 0
DWIDTH 6 0
BBX 4 3 1 6
VVECTOR 3 12
SWIDTH1 0 -1000
DWIDTH1 0 -15
BITMAP 
50
50
A0
ENDCHAR
STARTCHAR quoteleft
ENCODING 212
SWIDTH 267 0
DWIDTH 4 0
BBX 2 3 1 6
VVECTOR 2 12
SWIDTH1 0 -1000
DWIDTH1 0 -15
BITMAP 
40
80
80
ENDCHAR
STARTCHAR quoteright
ENCODING 213
SWIDTH 267 0
DWIDTH 4 0
BBX 2 3 1 6
VVECTOR 2 12
SWIDTH1 0 -1000
DWIDTH1 0 -15
BITMAP 
40
40
80
ENDCHAR
STARTCHAR lozenge
ENCODING 215
SWIDTH 600 0
DWIDTH 9 0
BBX 7 7 1 1
VVECTOR 5 12
SWIDTH1 0 -1000
DWIDTH1 0 -15
BITMAP 
10
28
44
82
44
28
10
ENDCHAR
STARTCHAR ydieresis
ENCODING 216
SWIDTH 667 0
DWIDTH 10 0
BBX 9 12 0 -3
VVECTOR 5 12
SWIDTH1 0 -1000
DWIDTH1 0 -15
BITMAP 
2200
0000
E380
4100
4100
4100
4100
2300
1D00
0100
2200
1C00
ENDCHAR
STARTCHAR Ydieresis
ENCODING 217
SWIDTH 533 0
DWIDTH 8 0
BBX 8 9 0 0
VVECTOR 4 12
SWIDTH1 0 -1000
DWIDTH1 0 -15
BITMAP 
07
0E
0C
70
88
67
70
30
10
ENDCHAR
STARTCHAR missing
ENCODING -1
SWIDTH 733 0
DWIDTH 11 0
BBX 8 9 1 0
VVECTOR 5 12
SWIDTH1 0 -1000
DWIDTH1 0 -15
BITMAP 
FF
81
81
81
81
81
81
81
FF
ENDCHAR
ENDFONT
